<?xml version="1.0" encoding="UTF-8" standalone="no"?>
<!DOCTYPE svg PUBLIC "-//W3C//DTD SVG 1.1//EN"
 "http://www.w3.org/Graphics/SVG/1.1/DTD/svg11.dtd">
<!-- Generated by graphviz version 15.0.0 (20260523.1842)
 -->
<!-- Title: workflow Pages: 1 -->
<svg width="671pt" height="890pt"
 viewBox="0.00 0.00 671.00 890.00" xmlns="http://www.w3.org/2000/svg" xmlns:xlink="http://www.w3.org/1999/xlink">
<g id="graph0" class="graph" transform="scale(1 1) rotate(0) translate(4 886.49)">
<title>workflow</title>
<polygon fill="white" stroke="none" points="-4,4 -4,-886.49 666.98,-886.49 666.98,4 -4,4"/>
<g id="clust1" class="cluster">
<title>cluster_parallel</title>
<path fill="white" stroke="#d08770" stroke-width="1.5" stroke-dasharray="5,2" d="M20,-312.29C20,-312.29 488,-312.29 488,-312.29 494,-312.29 500,-318.29 500,-324.29 500,-324.29 500,-377.69 500,-377.69 500,-383.69 494,-389.69 488,-389.69 488,-389.69 20,-389.69 20,-389.69 14,-389.69 8,-383.69 8,-377.69 8,-377.69 8,-324.29 8,-324.29 8,-318.29 14,-312.29 20,-312.29"/>
<text xml:space="preserve" text-anchor="middle" x="254" y="-376.19" font-family="Helvetica,sans-Serif" font-size="10.00">Parallel candidate trajectories &#160;(✓ / ✗ &#160;— one failure does not block others)</text>
</g>
<!-- U -->
<g id="node1" class="node">
<title>U</title>
<ellipse fill="#e5e9f0" stroke="#3b4252" stroke-width="1.2" cx="254" cy="-855.34" rx="101.06" ry="27.15"/>
<text xml:space="preserve" text-anchor="middle" x="254" y="-856.89" font-family="Helvetica,sans-Serif" font-size="11.00">User</text>
<text xml:space="preserve" text-anchor="middle" x="254" y="-844.89" font-family="Helvetica,sans-Serif" font-size="11.00">task + data_dir + budget</text>
</g>
<!-- M -->
<g id="node2" class="node">
<title>M</title>
<path fill="#5e81ac" stroke="#3b4252" stroke-width="2" d="M336.71,-787.19C336.71,-787.19 171.29,-787.19 171.29,-787.19 165.29,-787.19 159.29,-781.19 159.29,-775.19 159.29,-775.19 159.29,-760.79 159.29,-760.79 159.29,-754.79 165.29,-748.79 171.29,-748.79 171.29,-748.79 336.71,-748.79 336.71,-748.79 342.71,-748.79 348.71,-754.79 348.71,-760.79 348.71,-760.79 348.71,-775.19 348.71,-775.19 348.71,-781.19 342.71,-787.19 336.71,-787.19"/>
<text xml:space="preserve" text-anchor="middle" x="254" y="-769.54" font-family="Helvetica,sans-Serif" font-size="11.00" fill="white">(0) Manager</text>
<text xml:space="preserve" text-anchor="middle" x="254" y="-757.54" font-family="Helvetica,sans-Serif" font-size="11.00" fill="white">decision loop · budget · resumable</text>
</g>
<!-- U&#45;&gt;M -->
<g id="edge1" class="edge">
<title>U&#45;&gt;M</title>
<path fill="none" stroke="#4c566a" stroke-width="1.1" d="M254,-827.8C254,-818.82 254,-808.72 254,-799.45"/>
<polygon fill="#4c566a" stroke="#4c566a" stroke-width="1.1" points="257.5,-799.59 254,-789.59 250.5,-799.59 257.5,-799.59"/>
</g>
<!-- S1 -->
<g id="node3" class="node">
<title>S1</title>
<path fill="#eceff4" stroke="#3b4252" stroke-width="1.2" d="M342.71,-707.79C342.71,-707.79 165.29,-707.79 165.29,-707.79 159.29,-707.79 153.29,-701.79 153.29,-695.79 153.29,-695.79 153.29,-681.39 153.29,-681.39 153.29,-675.39 159.29,-669.39 165.29,-669.39 165.29,-669.39 342.71,-669.39 342.71,-669.39 348.71,-669.39 354.71,-675.39 354.71,-681.39 354.71,-681.39 354.71,-695.79 354.71,-695.79 354.71,-701.79 348.71,-707.79 342.71,-707.79"/>
<text xml:space="preserve" text-anchor="middle" x="254" y="-690.14" font-family="Helvetica,sans-Serif" font-size="11.00">(1) Setup / Intake</text>
<text xml:space="preserve" text-anchor="middle" x="254" y="-678.14" font-family="Helvetica,sans-Serif" font-size="11.00">clean · dedup · canonicalize SMILES</text>
</g>
<!-- M&#45;&gt;S1 -->
<g id="edge2" class="edge">
<title>M&#45;&gt;S1</title>
<path fill="none" stroke="#4c566a" stroke-width="1.1" d="M254,-747.85C254,-739.35 254,-729.15 254,-719.67"/>
<polygon fill="#4c566a" stroke="#4c566a" stroke-width="1.1" points="257.5,-719.9 254,-709.9 250.5,-719.9 257.5,-719.9"/>
</g>
<!-- C2 -->
<g id="node8" class="node">
<title>C2</title>
<path fill="#ebcb8b" stroke="#3b4252" stroke-width="1.2" d="M309.33,-360.94C309.33,-360.94 198.67,-360.94 198.67,-360.94 192.67,-360.94 186.67,-354.94 186.67,-348.94 186.67,-348.94 186.67,-332.29 186.67,-332.29 186.67,-326.29 192.67,-320.29 198.67,-320.29 198.67,-320.29 309.33,-320.29 309.33,-320.29 315.33,-320.29 321.33,-326.29 321.33,-332.29 321.33,-332.29 321.33,-348.94 321.33,-348.94 321.33,-354.94 315.33,-360.94 309.33,-360.94"/>
<text xml:space="preserve" text-anchor="middle" x="254" y="-343.29" font-family="Helvetica,sans-Serif" font-size="11.00">candidate 2</text>
<text xml:space="preserve" text-anchor="middle" x="254" y="-331.29" font-family="Helvetica,sans-Serif" font-size="11.00">(5) Coder → (7) Tuner</text>
</g>
<!-- M&#45;&gt;C2 -->
<g id="edge15" class="edge">
<title>M&#45;&gt;C2</title>
<path fill="none" stroke="#b48ead" stroke-width="1.1" stroke-dasharray="5,2" d="M323.24,-747.88C342.7,-738.97 361.64,-726.13 373,-707.79 381.99,-693.28 374.02,-686.42 373,-669.39 370.77,-632.23 385.94,-615.55 363,-586.24 347.55,-566.49 324.49,-586.87 310.25,-566.24 293.37,-541.78 336.03,-569.5 358,-536.49 366.69,-523.42 370.88,-447.66 356,-418.69 344.98,-397.23 324.95,-380.11 305.53,-367.5"/>
<polygon fill="#b48ead" stroke="#b48ead" stroke-width="1.1" points="307.56,-364.64 297.21,-362.37 303.88,-370.6 307.56,-364.64"/>
<text xml:space="preserve" text-anchor="middle" x="384.12" y="-557.69" font-family="Helvetica,sans-Serif" font-size="9.00">schedule · read reports · decide next</text>
</g>
<!-- S2 -->
<g id="node4" class="node">
<title>S2</title>
<path fill="#a3be8c" stroke="#3b4252" stroke-width="1.2" d="M332.58,-628.39C332.58,-628.39 175.42,-628.39 175.42,-628.39 169.42,-628.39 163.42,-622.39 163.42,-616.39 163.42,-616.39 163.42,-598.24 163.42,-598.24 163.42,-592.24 169.42,-586.24 175.42,-586.24 175.42,-586.24 332.58,-586.24 332.58,-586.24 338.58,-586.24 344.58,-592.24 344.58,-598.24 344.58,-598.24 344.58,-616.39 344.58,-616.39 344.58,-622.39 338.58,-628.39 332.58,-628.39"/>
<text xml:space="preserve" text-anchor="middle" x="254" y="-610.74" font-family="Helvetica,sans-Serif" font-size="11.00">(2) Cross&#45;validation folds &#160;★</text>
<text xml:space="preserve" text-anchor="middle" x="254" y="-594.99" font-family="Helvetica,sans-Serif" font-size="11.00">scaffold split (honest local score)</text>
</g>
<!-- S1&#45;&gt;S2 -->
<g id="edge3" class="edge">
<title>S1&#45;&gt;S2</title>
<path fill="none" stroke="#4c566a" stroke-width="1.1" d="M254,-668.8C254,-660.36 254,-650.17 254,-640.57"/>
<polygon fill="#4c566a" stroke="#4c566a" stroke-width="1.1" points="257.5,-640.58 254,-630.58 250.5,-640.58 257.5,-640.58"/>
</g>
<!-- S3 -->
<g id="node5" class="node">
<title>S3</title>
<path fill="#eceff4" stroke="#3b4252" stroke-width="1.2" d="M327.71,-536.49C327.71,-536.49 180.29,-536.49 180.29,-536.49 174.29,-536.49 168.29,-530.49 168.29,-524.49 168.29,-524.49 168.29,-510.09 168.29,-510.09 168.29,-504.09 174.29,-498.09 180.29,-498.09 180.29,-498.09 327.71,-498.09 327.71,-498.09 333.71,-498.09 339.71,-504.09 339.71,-510.09 339.71,-510.09 339.71,-524.49 339.71,-524.49 339.71,-530.49 333.71,-536.49 327.71,-536.49"/>
<text xml:space="preserve" text-anchor="middle" x="254" y="-518.84" font-family="Helvetica,sans-Serif" font-size="11.00">(3) Retrieval</text>
<text xml:space="preserve" text-anchor="middle" x="254" y="-506.84" font-family="Helvetica,sans-Serif" font-size="11.00">pick representation backbones</text>
</g>
<!-- S2&#45;&gt;S3 -->
<g id="edge4" class="edge">
<title>S2&#45;&gt;S3</title>
<path fill="none" stroke="#4c566a" stroke-width="1.1" d="M254,-585.89C254,-574.77 254,-560.79 254,-548.44"/>
<polygon fill="#4c566a" stroke="#4c566a" stroke-width="1.1" points="257.5,-548.46 254,-538.46 250.5,-548.46 257.5,-548.46"/>
</g>
<!-- S4 -->
<g id="node6" class="node">
<title>S4</title>
<path fill="#eceff4" stroke="#3b4252" stroke-width="1.2" d="M326.21,-457.09C326.21,-457.09 181.79,-457.09 181.79,-457.09 175.79,-457.09 169.79,-451.09 169.79,-445.09 169.79,-445.09 169.79,-430.69 169.79,-430.69 169.79,-424.69 175.79,-418.69 181.79,-418.69 181.79,-418.69 326.21,-418.69 326.21,-418.69 332.21,-418.69 338.21,-424.69 338.21,-430.69 338.21,-430.69 338.21,-445.09 338.21,-445.09 338.21,-451.09 332.21,-457.09 326.21,-457.09"/>
<text xml:space="preserve" text-anchor="middle" x="254" y="-439.44" font-family="Helvetica,sans-Serif" font-size="11.00">(4) Designer</text>
<text xml:space="preserve" text-anchor="middle" x="254" y="-427.44" font-family="Helvetica,sans-Serif" font-size="11.00">propose N diverse candidates</text>
</g>
<!-- S3&#45;&gt;S4 -->
<g id="edge5" class="edge">
<title>S3&#45;&gt;S4</title>
<path fill="none" stroke="#4c566a" stroke-width="1.1" d="M254,-497.55C254,-488.99 254,-478.64 254,-469.03"/>
<polygon fill="#4c566a" stroke="#4c566a" stroke-width="1.1" points="257.5,-469.11 254,-459.11 250.5,-469.11 257.5,-469.11"/>
</g>
<!-- C1 -->
<g id="node7" class="node">
<title>C1</title>
<path fill="#ebcb8b" stroke="#3b4252" stroke-width="1.2" d="M138.33,-360.94C138.33,-360.94 27.67,-360.94 27.67,-360.94 21.67,-360.94 15.67,-354.94 15.67,-348.94 15.67,-348.94 15.67,-332.29 15.67,-332.29 15.67,-326.29 21.67,-320.29 27.67,-320.29 27.67,-320.29 138.33,-320.29 138.33,-320.29 144.33,-320.29 150.33,-326.29 150.33,-332.29 150.33,-332.29 150.33,-348.94 150.33,-348.94 150.33,-354.94 144.33,-360.94 138.33,-360.94"/>
<text xml:space="preserve" text-anchor="middle" x="83" y="-343.29" font-family="Helvetica,sans-Serif" font-size="11.00">candidate 1</text>
<text xml:space="preserve" text-anchor="middle" x="83" y="-331.29" font-family="Helvetica,sans-Serif" font-size="11.00">(5) Coder → (7) Tuner</text>
</g>
<!-- S4&#45;&gt;C1 -->
<g id="edge6" class="edge">
<title>S4&#45;&gt;C1</title>
<path fill="none" stroke="#4c566a" stroke-width="1.1" d="M220.48,-418.3C204.83,-409.62 185.96,-399.13 169,-389.69 155.91,-382.39 141.71,-374.46 128.7,-367.19"/>
<polygon fill="#4c566a" stroke="#4c566a" stroke-width="1.1" points="130.44,-364.15 120.01,-362.33 127.03,-370.26 130.44,-364.15"/>
</g>
<!-- S4&#45;&gt;C2 -->
<g id="edge7" class="edge">
<title>S4&#45;&gt;C2</title>
<path fill="none" stroke="#4c566a" stroke-width="1.1" d="M254,-418.52C254,-405.54 254,-387.85 254,-372.7"/>
<polygon fill="#4c566a" stroke="#4c566a" stroke-width="1.1" points="257.5,-372.9 254,-362.9 250.5,-372.9 257.5,-372.9"/>
</g>
<!-- C3 -->
<g id="node9" class="node">
<title>C3</title>
<path fill="#ebcb8b" stroke="#3b4252" stroke-width="1.2" d="M480.33,-360.94C480.33,-360.94 369.67,-360.94 369.67,-360.94 363.67,-360.94 357.67,-354.94 357.67,-348.94 357.67,-348.94 357.67,-332.29 357.67,-332.29 357.67,-326.29 363.67,-320.29 369.67,-320.29 369.67,-320.29 480.33,-320.29 480.33,-320.29 486.33,-320.29 492.33,-326.29 492.33,-332.29 492.33,-332.29 492.33,-348.94 492.33,-348.94 492.33,-354.94 486.33,-360.94 480.33,-360.94"/>
<text xml:space="preserve" text-anchor="middle" x="425" y="-343.29" font-family="Helvetica,sans-Serif" font-size="11.00">candidate N</text>
<text xml:space="preserve" text-anchor="middle" x="425" y="-331.29" font-family="Helvetica,sans-Serif" font-size="11.00">(5) Coder → (7) Tuner</text>
</g>
<!-- S4&#45;&gt;C3 -->
<g id="edge8" class="edge">
<title>S4&#45;&gt;C3</title>
<path fill="none" stroke="#4c566a" stroke-width="1.1" d="M287.52,-418.3C303.17,-409.62 322.04,-399.13 339,-389.69 352.09,-382.39 366.29,-374.46 379.3,-367.19"/>
<polygon fill="#4c566a" stroke="#4c566a" stroke-width="1.1" points="380.97,-370.26 387.99,-362.33 377.56,-364.15 380.97,-370.26"/>
</g>
<!-- SEL -->
<g id="node10" class="node">
<title>SEL</title>
<path fill="#eceff4" stroke="#3b4252" stroke-width="1.2" d="M327.71,-279.29C327.71,-279.29 180.29,-279.29 180.29,-279.29 174.29,-279.29 168.29,-273.29 168.29,-267.29 168.29,-267.29 168.29,-252.89 168.29,-252.89 168.29,-246.89 174.29,-240.89 180.29,-240.89 180.29,-240.89 327.71,-240.89 327.71,-240.89 333.71,-240.89 339.71,-246.89 339.71,-252.89 339.71,-252.89 339.71,-267.29 339.71,-267.29 339.71,-273.29 333.71,-279.29 327.71,-279.29"/>
<text xml:space="preserve" text-anchor="middle" x="254" y="-261.64" font-family="Helvetica,sans-Serif" font-size="11.00">(6) Selector / Leaderboard</text>
<text xml:space="preserve" text-anchor="middle" x="254" y="-249.64" font-family="Helvetica,sans-Serif" font-size="11.00">rank by validation score · top&#45;k</text>
</g>
<!-- C1&#45;&gt;SEL -->
<g id="edge9" class="edge">
<title>C1&#45;&gt;SEL</title>
<path fill="none" stroke="#4c566a" stroke-width="1.1" d="M126.15,-319.8C149.42,-309.11 178.29,-295.85 202.7,-284.64"/>
<polygon fill="#4c566a" stroke="#4c566a" stroke-width="1.1" points="204.08,-287.86 211.7,-280.51 201.16,-281.5 204.08,-287.86"/>
</g>
<!-- C2&#45;&gt;SEL -->
<g id="edge10" class="edge">
<title>C2&#45;&gt;SEL</title>
<path fill="none" stroke="#4c566a" stroke-width="1.1" d="M254,-319.8C254,-311.17 254,-300.87 254,-291.32"/>
<polygon fill="#4c566a" stroke="#4c566a" stroke-width="1.1" points="257.5,-291.48 254,-281.48 250.5,-291.48 257.5,-291.48"/>
</g>
<!-- C3&#45;&gt;SEL -->
<g id="edge11" class="edge">
<title>C3&#45;&gt;SEL</title>
<path fill="none" stroke="#4c566a" stroke-width="1.1" d="M381.85,-319.8C358.58,-309.11 329.71,-295.85 305.3,-284.64"/>
<polygon fill="#4c566a" stroke="#4c566a" stroke-width="1.1" points="306.84,-281.5 296.3,-280.51 303.92,-287.86 306.84,-281.5"/>
</g>
<!-- SEL&#45;&gt;M -->
<g id="edge16" class="edge">
<title>SEL&#45;&gt;M</title>
<path fill="none" stroke="#bf616a" stroke-width="1.1" stroke-dasharray="5,2" d="M340.22,-266.9C405.63,-273.32 487.79,-286.39 509,-312.29 624.32,-453.06 502.88,-555.66 403,-707.79 392.53,-723.73 376.98,-735.39 359.83,-743.9"/>
<polygon fill="#bf616a" stroke="#bf616a" stroke-width="1.1" points="358.74,-740.55 351.09,-747.87 361.64,-746.92 358.74,-740.55"/>
<text xml:space="preserve" text-anchor="middle" x="601.48" y="-513.61" font-family="Helvetica,sans-Serif" font-size="9.00">validation&#45;vs&#45;leaderboard gap</text>
</g>
<!-- AGG -->
<g id="node11" class="node">
<title>AGG</title>
<path fill="#a3be8c" stroke="#3b4252" stroke-width="1.2" d="M347.21,-199.89C347.21,-199.89 160.79,-199.89 160.79,-199.89 154.79,-199.89 148.79,-193.89 148.79,-187.89 148.79,-187.89 148.79,-169.74 148.79,-169.74 148.79,-163.74 154.79,-157.74 160.79,-157.74 160.79,-157.74 347.21,-157.74 347.21,-157.74 353.21,-157.74 359.21,-163.74 359.21,-169.74 359.21,-169.74 359.21,-187.89 359.21,-187.89 359.21,-193.89 353.21,-199.89 347.21,-199.89"/>
<text xml:space="preserve" text-anchor="middle" x="254" y="-182.24" font-family="Helvetica,sans-Serif" font-size="11.00">(8) Aggregator &#160;★</text>
<text xml:space="preserve" text-anchor="middle" x="254" y="-166.49" font-family="Helvetica,sans-Serif" font-size="11.00">ensemble: stacking + multi&#45;seed + refit</text>
</g>
<!-- SEL&#45;&gt;AGG -->
<g id="edge12" class="edge">
<title>SEL&#45;&gt;AGG</title>
<path fill="none" stroke="#4c566a" stroke-width="1.1" d="M254,-240.3C254,-231.86 254,-221.67 254,-212.07"/>
<polygon fill="#4c566a" stroke="#4c566a" stroke-width="1.1" points="257.5,-212.08 254,-202.08 250.5,-212.08 257.5,-212.08"/>
</g>
<!-- EXP -->
<g id="node12" class="node">
<title>EXP</title>
<path fill="#eceff4" stroke="#3b4252" stroke-width="1.2" d="M352.09,-116.74C352.09,-116.74 155.91,-116.74 155.91,-116.74 149.91,-116.74 143.91,-110.74 143.91,-104.74 143.91,-104.74 143.91,-90.34 143.91,-90.34 143.91,-84.34 149.91,-78.34 155.91,-78.34 155.91,-78.34 352.09,-78.34 352.09,-78.34 358.09,-78.34 364.09,-84.34 364.09,-90.34 364.09,-90.34 364.09,-104.74 364.09,-104.74 364.09,-110.74 358.09,-116.74 352.09,-116.74"/>
<text xml:space="preserve" text-anchor="middle" x="254" y="-99.09" font-family="Helvetica,sans-Serif" font-size="11.00">(9) Exporter</text>
<text xml:space="preserve" text-anchor="middle" x="254" y="-87.09" font-family="Helvetica,sans-Serif" font-size="11.00">submission.csv + reproducibility manifest</text>
</g>
<!-- AGG&#45;&gt;EXP -->
<g id="edge13" class="edge">
<title>AGG&#45;&gt;EXP</title>
<path fill="none" stroke="#4c566a" stroke-width="1.1" d="M254,-157.39C254,-148.69 254,-138.34 254,-128.77"/>
<polygon fill="#4c566a" stroke="#4c566a" stroke-width="1.1" points="257.5,-128.92 254,-118.92 250.5,-128.92 257.5,-128.92"/>
</g>
<!-- OUT -->
<g id="node13" class="node">
<title>OUT</title>
<ellipse fill="#e5e9f0" stroke="#3b4252" stroke-width="1.2" cx="254" cy="-18.67" rx="85.15" ry="18.67"/>
<text xml:space="preserve" text-anchor="middle" x="254" y="-14.22" font-family="Helvetica,sans-Serif" font-size="11.00">submission + report</text>
</g>
<!-- EXP&#45;&gt;OUT -->
<g id="edge14" class="edge">
<title>EXP&#45;&gt;OUT</title>
<path fill="none" stroke="#4c566a" stroke-width="1.1" d="M254,-77.93C254,-69.37 254,-59 254,-49.4"/>
<polygon fill="#4c566a" stroke="#4c566a" stroke-width="1.1" points="257.5,-49.5 254,-39.5 250.5,-49.5 257.5,-49.5"/>
</g>
</g>
</svg>
